<?xml version="1.0" encoding="UTF-8" standalone="no"?>
<!DOCTYPE svg PUBLIC "-//W3C//DTD SVG 1.1//EN" "http://www.w3.org/Graphics/SVG/1.1/DTD/svg11.dtd">
<svg width="100%" height="100%" viewBox="0 0 128 128" version="1.1" xmlns="http://www.w3.org/2000/svg" xmlns:xlink="http://www.w3.org/1999/xlink" xml:space="preserve" xmlns:serif="http://www.serif.com/" style="fill-rule:evenodd;clip-rule:evenodd;stroke-linecap:round;stroke-miterlimit:10;">
    <g>
        <path d="M61.525,115.682C33.46,115.682 10.676,92.903 10.676,64.847C10.676,36.884 33.307,14.165 61.242,14.012C61.336,14.011 61.431,14.011 61.525,14.011C61.702,14.011 61.878,14.012 62.054,14.014" style="fill:white;fill-opacity:0;"/>
        <path d="M49.045,121.227L55.642,115.345L49.76,108.747" style="fill:none;stroke:white;stroke-width:8.33px;"/>
        <path d="M55.642,115.345C30.344,112.426 10.676,90.914 10.676,64.847C10.676,36.884 33.307,14.165 61.242,14.012C61.336,14.011 61.431,14.011 61.525,14.011C61.702,14.011 61.878,14.012 62.054,14.014" style="fill:none;stroke:white;stroke-width:8.33px;stroke-linejoin:round;stroke-miterlimit:1.5;"/>
    </g>
    <g>
        <path d="M72.916,14.014C100.738,14.298 123.237,36.966 123.237,64.847C123.237,92.727 100.738,115.395 72.916,115.679" style="fill:white;fill-opacity:0;"/>
        <path d="M82.713,5.46C84.445,3.947 87.079,4.125 88.592,5.857C90.104,7.59 89.926,10.224 88.194,11.736C88.194,11.736 84.675,14.81 84.675,14.81L87.748,18.329C89.26,20.061 89.082,22.695 87.35,24.208C85.618,25.721 82.983,25.542 81.471,23.81L75.657,17.152C74.143,15.419 74.322,12.787 76.055,11.273L82.713,5.46Z" style="fill:white;"/>
        <path d="M78.275,18.546C75.993,18.258 74.374,16.173 74.661,13.891C74.949,11.61 77.035,9.99 79.316,10.278C106.414,13.69 127.404,36.837 127.404,64.847C127.404,95.012 103.061,119.538 72.959,119.846C70.659,119.869 68.773,118.021 68.75,115.722C68.726,113.422 70.574,111.536 72.874,111.513C98.415,111.252 119.07,90.442 119.07,64.847C119.07,41.082 101.266,21.441 78.275,18.546Z" style="fill:white;"/>
    </g>
</svg>
